<svg xmlns="http://www.w3.org/2000/svg" width="7519" height="2988" viewBox="0 0 7519 2988" fill="none"><g clip-path="url(#clip0_120_15)"><path d="M2866.28 121.471C2788.02 43.6702 2682.16 0 2571.81 0C2461.46 0 2355.59 43.6702 2277.33 121.471L1936.34 462.464C1858.24 540.564 1814.36 646.49 1814.36 756.939C1814.36 867.389 1858.24 973.315 1936.34 1051.41V1051.41C2014.44 1129.51 2120.36 1173.39 2230.81 1173.39C2341.26 1173.39 2447.19 1129.51 2525.29 1051.41L2866.28 710.422C2944.08 632.164 2987.75 526.297 2987.75 415.947C2987.75 305.596 2944.08 199.729 2866.28 121.471V121.471Z" fill="#71CFEC"></path><path d="M2866.32 2277.37L2082.85 1493.9L1493.9 904.947L710.421 121.471C632.164 43.67 526.297 0 415.946 0C305.596 0 199.729 43.67 121.471 121.471V121.471C43.6705 199.729 0.000503809 305.595 0.000503809 415.946C0.000503809 526.297 43.6705 632.163 121.471 710.421L721.157 1310.11C745.293 1334.24 764.438 1362.89 777.5 1394.43C790.562 1425.96 797.285 1459.76 797.285 1493.9C797.285 1528.03 790.562 1561.83 777.5 1593.36C764.438 1624.9 745.293 1653.55 721.157 1677.68L121.471 2277.37C43.6702 2355.63 0 2461.5 0 2571.85C0 2682.2 43.6702 2788.06 121.471 2866.32V2866.32C199.729 2944.12 305.596 2987.79 415.946 2987.79C526.297 2987.79 632.164 2944.12 710.421 2866.32L1493.9 2082.84L2277.37 2866.32C2355.63 2944.12 2461.5 2987.79 2571.85 2987.79C2682.2 2987.79 2788.06 2944.12 2866.32 2866.32V2866.32C2944.12 2788.06 2987.79 2682.2 2987.79 2571.85C2987.79 2461.5 2944.12 2355.63 2866.32 2277.37V2277.37Z" fill="#F15B5B"></path><path d="M1493.86 2082.85L2277.33 2866.32C2355.59 2944.12 2461.46 2987.79 2571.81 2987.79C2682.16 2987.79 2788.03 2944.12 2866.28 2866.32V2866.32C2944.08 2788.06 2987.75 2682.2 2987.75 2571.85C2987.75 2461.5 2944.08 2355.63 2866.28 2277.37L2671.76 2082.85C2594.42 2005.5 2502.6 1944.15 2401.54 1902.3C2300.49 1860.44 2192.19 1838.89 2082.81 1838.89C1973.43 1838.89 1865.12 1860.44 1764.07 1902.3C1663.02 1944.15 1571.2 2005.5 1493.86 2082.85V2082.85Z" fill="#D29AC5"></path><path d="M5982.97 1982.4C5985.02 2016.81 5973.41 2050.64 5950.66 2076.54C5927.91 2102.45 5895.86 2118.33 5861.47 2120.74H5137.73C5102.66 2120.67 5069.06 2106.69 5044.3 2081.87C5019.53 2057.05 5005.63 2023.41 5005.66 1988.34V999.459C5005.63 964.395 5019.53 930.757 5044.3 905.933C5069.06 881.109 5102.66 867.13 5137.73 867.066H5861.47C5895.07 871.439 5925.93 887.889 5948.29 913.346C5970.64 938.803 5982.97 971.527 5982.97 1005.41C5982.97 1039.29 5970.64 1072.01 5948.29 1097.47C5925.93 1122.93 5895.07 1139.38 5861.47 1143.75H5439.17C5428.12 1143.92 5417.2 1146.26 5407.05 1150.65C5396.9 1155.04 5387.71 1161.39 5380.02 1169.33C5372.32 1177.27 5366.26 1186.65 5362.19 1196.93C5358.12 1207.22 5356.12 1218.2 5356.3 1229.26V1277.14C5356.12 1288.2 5358.12 1299.19 5362.19 1309.47C5366.26 1319.75 5372.32 1329.13 5380.02 1337.07C5387.71 1345.02 5396.9 1351.36 5407.05 1355.75C5417.2 1360.14 5428.12 1362.49 5439.17 1362.65H5747.23C5773.02 1363.82 5797.67 1373.65 5817.2 1390.54C5836.73 1407.43 5850 1430.4 5854.87 1455.76C5858.2 1468.25 5859.86 1481.13 5859.82 1494.06C5859.88 1502.92 5859.11 1511.77 5857.51 1520.49C5854.49 1548.16 5841.75 1573.87 5821.56 1593.04C5801.37 1612.2 5775.03 1623.58 5747.23 1625.15H5439.17C5428.12 1625.32 5417.2 1627.66 5407.05 1632.05C5396.9 1636.44 5387.71 1642.78 5380.01 1650.73C5372.31 1658.67 5366.26 1668.05 5362.19 1678.33C5358.12 1688.62 5356.12 1699.6 5356.3 1710.66V1758.54C5356.12 1769.6 5358.12 1780.59 5362.19 1790.87C5366.26 1801.15 5372.32 1810.53 5380.01 1818.47C5387.71 1826.42 5396.9 1832.76 5407.05 1837.15C5417.2 1841.54 5428.12 1843.89 5439.17 1844.05H5861.47C5895.86 1846.46 5927.91 1862.34 5950.66 1888.25C5973.41 1914.15 5985.02 1947.98 5982.97 1982.4V1982.4Z" fill="black"></path><path d="M5130.14 1493.74C5126.19 1494.17 5122.21 1494.17 5118.26 1493.74H5130.14Z" fill="#00FF00"></path><path d="M4729.73 1021.08V1966.71C4729.73 2051.56 4651.47 2120.58 4555.07 2120.58C4458.65 2120.58 4380.4 2051.56 4380.4 1966.71V1742.2C4380.4 1713.65 4369.06 1686.27 4348.87 1666.09C4328.69 1645.9 4301.31 1634.56 4272.77 1634.55H4071.35C4042.81 1634.56 4015.43 1645.9 3995.25 1666.09C3975.07 1686.27 3963.73 1713.65 3963.72 1742.2V1966.71C3963.72 2051.56 3885.47 2120.58 3789.06 2120.58C3692.65 2120.58 3614.4 2051.56 3614.4 1966.71V1021.08C3614.4 935.892 3692.65 867.229 3789.06 867.229C3885.47 867.229 3963.72 935.892 3963.72 1021.08V1239C3963.73 1267.54 3975.07 1294.92 3995.26 1315.1C4015.44 1335.28 4042.81 1346.62 4071.35 1346.63H4272.77C4301.31 1346.62 4328.68 1335.28 4348.87 1315.1C4369.05 1294.92 4380.4 1267.54 4380.4 1239V1021.08C4380.4 935.892 4458.65 867.229 4555.07 867.229C4651.47 867.229 4729.73 935.892 4729.73 1021.08Z" fill="black"></path><path d="M7465.07 2069.95C7448.79 2086.63 7429.39 2099.94 7407.96 2109.13C7386.54 2118.31 7363.52 2123.18 7340.21 2123.46C7316.9 2123.74 7293.77 2119.43 7272.13 2110.77C7250.49 2102.11 7230.77 2089.27 7214.09 2072.99L6947 1805.89C6939.52 1798.07 6930.53 1791.84 6920.58 1787.59C6910.63 1783.34 6899.92 1781.15 6889.09 1781.15C6878.27 1781.15 6867.56 1783.34 6857.61 1787.6C6847.65 1791.85 6838.67 1798.08 6831.19 1805.9L6563.41 2073.69C6529.39 2105.91 6484.14 2123.59 6437.29 2122.95C6390.44 2122.32 6345.68 2103.43 6312.55 2070.29C6279.42 2037.16 6260.52 1992.41 6259.89 1945.56C6259.26 1898.7 6276.93 1853.46 6309.16 1819.44L6575.55 1553.05C6590.86 1537.18 6599.47 1516.03 6599.59 1493.98C6599.41 1471.92 6590.91 1450.74 6575.79 1434.68L6309.63 1168.52C6277.3 1134.52 6259.53 1089.24 6260.12 1042.33C6260.71 995.423 6279.61 950.602 6312.78 917.43C6345.95 884.258 6390.77 865.361 6437.68 864.772C6484.59 864.183 6529.87 881.947 6563.87 914.276L6831.43 1181.84C6838.88 1189.64 6847.83 1195.88 6857.73 1200.17C6867.64 1204.46 6878.3 1206.71 6889.09 1206.81C6899.9 1206.76 6910.58 1204.53 6920.49 1200.24C6930.41 1195.94 6939.34 1189.68 6946.77 1181.83L7214.78 914.281C7248.4 881.574 7293.6 863.507 7340.5 864.031C7387.4 864.554 7432.19 883.625 7465.07 917.074L7465.54 917.542L7466 918.009C7499.5 950.861 7518.61 995.657 7519.13 1042.57C7519.66 1089.49 7501.56 1134.7 7468.8 1168.29L7202.41 1434.68C7187.29 1450.74 7178.78 1471.92 7178.6 1493.98C7178.72 1516.03 7187.33 1537.18 7202.64 1553.05L7468.34 1818.75C7501.19 1852.5 7519.3 1897.92 7518.69 1945.02C7518.08 1992.13 7498.79 2037.06 7465.07 2069.95V2069.95Z" fill="black"></path></g><defs><clipPath id="clip0_120_15"><rect width="7519" height="2988" fill="white"></rect></clipPath></defs></svg>